<svg width="302" height="21" fill="none" xmlns="http://www.w3.org/2000/svg"><path d="M13.7 20c-.28 0-.523-.065-.728-.196-.205-.15-.345-.299-.42-.448L6.14 9.78v9.464a.727.727 0 01-.224.532.727.727 0 01-.532.224H1.716a.727.727 0 01-.532-.224.727.727 0 01-.224-.532V1.156c0-.205.075-.383.224-.532A.727.727 0 011.716.4h2.912c.28 0 .523.075.728.224.205.13.345.27.42.42l6.412 9.576V1.156c0-.205.075-.383.224-.532A.727.727 0 0112.944.4h3.668c.205 0 .383.075.532.224.15.15.224.327.224.532v18.088a.727.727 0 01-.224.532.727.727 0 01-.532.224H13.7zM39 18.964c.075.187.112.327.112.42a.617.617 0 01-.196.448.57.57 0 01-.42.168h-3.528c-.317 0-.569-.065-.756-.196a1.093 1.093 0 01-.336-.504l-.784-2.324h-7.448L24.86 19.3a1.029 1.029 0 01-.364.504c-.168.13-.41.196-.728.196H20.24a.669.669 0 01-.448-.168.669.669 0 01-.168-.448c0-.093.038-.233.112-.42l6.104-17.64a1.44 1.44 0 01.448-.644c.206-.187.476-.28.812-.28h4.536c.336 0 .607.093.812.28.206.168.355.383.448.644L39 18.964zm-7.364-6.328l-2.268-6.72-2.268 6.72h4.536zm14.918-2.66v9.268a.727.727 0 01-.224.532.727.727 0 01-.532.224H42.13a.727.727 0 01-.532-.224.727.727 0 01-.224-.532V1.156c0-.205.075-.383.224-.532A.727.727 0 0142.13.4h3.248c.523 0 .924.252 1.204.756l4.536 7.756 4.536-7.756c.28-.504.681-.756 1.204-.756h3.248c.205 0 .383.075.532.224.15.15.224.327.224.532v18.088a.727.727 0 01-.224.532.727.727 0 01-.532.224h-3.668a.727.727 0 01-.532-.224.727.727 0 01-.224-.532V9.976l-2.632 4.62a1.97 1.97 0 01-.448.504c-.15.13-.345.196-.588.196h-1.792a.973.973 0 01-.616-.196c-.15-.13-.29-.299-.42-.504l-2.632-4.62zm35.95 8.988c.075.187.112.327.112.42a.617.617 0 01-.196.448A.57.57 0 0182 20h-3.528c-.317 0-.569-.065-.756-.196a1.093 1.093 0 01-.336-.504l-.784-2.324h-7.448l-.784 2.324a1.029 1.029 0 01-.364.504c-.168.13-.41.196-.728.196h-3.528a.669.669 0 01-.448-.168.669.669 0 01-.168-.448c0-.093.038-.233.112-.42l6.104-17.64a1.44 1.44 0 01.448-.644c.206-.187.476-.28.812-.28h4.536c.336 0 .607.093.812.28.206.168.355.383.448.644l6.104 17.64zm-7.364-6.328l-2.268-6.72-2.268 6.72h4.536zM97.618 20c-.28 0-.523-.065-.728-.196-.205-.15-.345-.299-.42-.448L90.058 9.78v9.464a.727.727 0 01-.224.532.727.727 0 01-.532.224h-3.668a.727.727 0 01-.532-.224.727.727 0 01-.224-.532V1.156c0-.205.075-.383.224-.532A.727.727 0 0185.634.4h2.912c.28 0 .523.075.728.224.205.13.345.27.42.42l6.412 9.576V1.156c0-.205.075-.383.224-.532A.727.727 0 0196.862.4h3.668c.205 0 .383.075.532.224.149.15.224.327.224.532v18.088a.728.728 0 01-.224.532.727.727 0 01-.532.224h-2.912zm11.62-12.152c-.056.448-.084 1.167-.084 2.156 0 1.157.028 2.007.084 2.548.074.952.392 1.736.952 2.352.56.597 1.418.896 2.576.896 1.064 0 1.913-.243 2.548-.728.653-.504.98-1.288.98-2.352h-2.352a.725.725 0 01-.532-.224.724.724 0 01-.224-.532V8.996c0-.205.074-.383.224-.532a.725.725 0 01.532-.224h6.776c.205 0 .382.075.532.224.149.15.224.327.224.532v3.584c0 1.55-.383 2.912-1.148 4.088-.766 1.157-1.811 2.053-3.136 2.688-1.307.616-2.782.924-4.424.924-1.736 0-3.248-.336-4.536-1.008-1.288-.69-2.287-1.605-2.996-2.744a8.027 8.027 0 01-1.176-3.836 53.85 53.85 0 01-.056-2.212c0-.69.018-1.615.056-2.772.056-1.4.438-2.67 1.148-3.808.709-1.157 1.708-2.072 2.996-2.744C109.508.466 111.03.12 112.766.12c1.661 0 3.126.308 4.396.924 1.288.616 2.286 1.39 2.996 2.324.728.933 1.12 1.839 1.176 2.716a.531.531 0 01-.168.448.67.67 0 01-.448.168h-3.724c-.243 0-.439-.056-.588-.168-.131-.13-.308-.327-.532-.588a3.823 3.823 0 00-1.204-.98c-.448-.243-1.083-.364-1.904-.364-2.11 0-3.286 1.083-3.528 3.248zm33.122 11.116c.074.187.112.327.112.42a.62.62 0 01-.196.448.57.57 0 01-.42.168h-3.528c-.318 0-.57-.065-.756-.196a1.093 1.093 0 01-.336-.504l-.784-2.324h-7.448l-.784 2.324a1.033 1.033 0 01-.364.504c-.168.13-.411.196-.728.196H123.6a.668.668 0 01-.448-.168.669.669 0 01-.168-.448c0-.093.037-.233.112-.42l6.104-17.64c.093-.261.242-.476.448-.644.205-.187.476-.28.812-.28h4.536c.336 0 .606.093.812.28.205.168.354.383.448.644l6.104 17.64zm-7.364-6.328l-2.268-6.72-2.268 6.72h4.536zM157.473 20c-.28 0-.522-.065-.728-.196-.205-.15-.345-.299-.42-.448l-6.412-9.576v9.464a.724.724 0 01-.224.532.725.725 0 01-.532.224h-3.668a.729.729 0 01-.532-.224.728.728 0 01-.224-.532V1.156c0-.205.075-.383.224-.532a.728.728 0 01.532-.224h2.912c.28 0 .523.075.728.224.206.13.346.27.42.42l6.412 9.576V1.156c0-.205.075-.383.224-.532a.728.728 0 01.532-.224h3.668c.206 0 .383.075.532.224.15.15.224.327.224.532v18.088a.724.724 0 01-.224.532.725.725 0 01-.532.224h-2.912zm21.297-4.48c.205 0 .383.075.532.224.149.15.224.327.224.532v2.968a.728.728 0 01-.224.532.727.727 0 01-.532.224h-12.964a.727.727 0 01-.532-.224.728.728 0 01-.224-.532V1.156c0-.205.075-.383.224-.532a.727.727 0 01.532-.224h3.668c.205 0 .383.075.532.224.149.15.224.327.224.532V15.52h8.54zm3.907 4.48a.727.727 0 01-.532-.224.728.728 0 01-.224-.532V1.156c0-.205.075-.383.224-.532a.727.727 0 01.532-.224h3.668c.205 0 .383.075.532.224.149.15.224.327.224.532v18.088a.728.728 0 01-.224.532.727.727 0 01-.532.224h-3.668zm24.953-.924a.503.503 0 01.084.308.615.615 0 01-.196.448.57.57 0 01-.42.168h-4.452c-.242 0-.448-.047-.616-.14a2.614 2.614 0 01-.532-.504l-5.292-6.664v6.552a.724.724 0 01-.224.532.725.725 0 01-.532.224h-3.668a.729.729 0 01-.532-.224.728.728 0 01-.224-.532V1.156c0-.205.075-.383.224-.532a.728.728 0 01.532-.224h3.668c.206 0 .383.075.532.224.15.15.224.327.224.532v5.908l4.928-6.048c.15-.187.299-.336.448-.448.15-.112.374-.168.672-.168h4.368a.53.53 0 01.42.196.53.53 0 01.196.42.587.587 0 01-.084.308l-6.916 8.456 7.392 9.296zm15.956-3.556c.206 0 .383.075.532.224.15.15.224.327.224.532v2.968a.724.724 0 01-.224.532.725.725 0 01-.532.224h-12.964a.729.729 0 01-.532-.224.728.728 0 01-.224-.532V1.156c0-.205.075-.383.224-.532a.728.728 0 01.532-.224h3.668c.206 0 .383.075.532.224.15.15.224.327.224.532V15.52h8.54zm20.875 3.444c.075.187.112.327.112.42a.615.615 0 01-.196.448.57.57 0 01-.42.168h-3.528c-.317 0-.569-.065-.756-.196a1.093 1.093 0 01-.336-.504l-.784-2.324h-7.448l-.784 2.324a1.027 1.027 0 01-.364.504c-.168.13-.41.196-.728.196h-3.528a.67.67 0 01-.448-.168.669.669 0 01-.168-.448c0-.093.038-.233.112-.42l6.104-17.64c.094-.261.243-.476.448-.644.206-.187.476-.28.812-.28h4.536c.336 0 .607.093.812.28.206.168.355.383.448.644l6.104 17.64zm-7.364-6.328l-2.268-6.72-2.268 6.72h4.536zM255.179.4c2.501 0 4.443.541 5.824 1.624 1.381 1.064 2.072 2.66 2.072 4.788 0 2.707-1.111 4.573-3.332 5.6l3.472 6.664a.697.697 0 01.084.308.615.615 0 01-.196.448.57.57 0 01-.42.168h-3.808c-.336 0-.588-.065-.756-.196a1.838 1.838 0 01-.42-.56l-3.108-5.992h-2.576v5.992a.728.728 0 01-.224.532.727.727 0 01-.532.224h-3.668a.727.727 0 01-.532-.224.728.728 0 01-.224-.532V1.156c0-.205.075-.383.224-.532a.727.727 0 01.532-.224h7.588zm0 8.484c1.811 0 2.716-.69 2.716-2.072 0-1.381-.905-2.072-2.716-2.072h-3.164v4.144h3.164zm18.797 6.636h7.028c.205 0 .382.075.532.224.149.15.224.327.224.532v2.968a.728.728 0 01-.224.532.729.729 0 01-.532.224H266.22a.725.725 0 01-.532-.224.724.724 0 01-.224-.532v-2.408c0-.71.27-1.26.812-1.652l8.372-5.992c.597-.448.989-.859 1.176-1.232a2.68 2.68 0 00.308-1.26c0-.467-.168-.933-.504-1.4-.318-.467-.934-.7-1.848-.7-.635 0-1.139.13-1.512.392-.355.243-.588.476-.7.7-.094.205-.224.532-.392.98-.094.243-.234.41-.42.504a1.56 1.56 0 01-.7.14h-3.444a.668.668 0 01-.448-.168.669.669 0 01-.168-.448 6.562 6.562 0 01.924-3.136c.578-1.008 1.446-1.83 2.604-2.464 1.157-.653 2.566-.98 4.228-.98 1.586 0 2.949.308 4.088.924 1.138.597 1.997 1.4 2.576 2.408a6.17 6.17 0 01.896 3.248c0 1.139-.262 2.175-.784 3.108-.504.915-1.382 1.83-2.632 2.744l-3.92 2.968zM294.192 20a.729.729 0 01-.532-.224.728.728 0 01-.224-.532v-2.856h-8.82a.729.729 0 01-.532-.224.728.728 0 01-.224-.532v-2.968c0-.485.122-.887.364-1.204L292.596.904c.168-.205.318-.336.448-.392.15-.075.346-.112.588-.112h4.228c.206 0 .383.075.532.224.15.15.224.327.224.532v10.752h2.408c.206 0 .383.075.532.224.15.15.224.327.224.532v2.968a.724.724 0 01-.224.532.725.725 0 01-.532.224h-2.408v2.856a.724.724 0 01-.224.532.725.725 0 01-.532.224h-3.668zm-.616-13.244l-4.088 5.152h4.088V6.756z" fill="#295091"/></svg>