<svg width="257" height="15" fill="none" xmlns="http://www.w3.org/2000/svg"><path d="M4.656 14.6a.426.426 0 01-.288-.112.39.39 0 01-.112-.288v-1.104c-.79-.096-1.467-.299-2.032-.608-.555-.31-.976-.683-1.264-1.12a2.903 2.903 0 01-.448-1.424c0-.085.032-.16.096-.224a.352.352 0 01.256-.112H2.88c.128 0 .23.027.304.08.085.043.17.112.256.208.139.277.357.507.656.688.31.181.725.272 1.248.272.608 0 1.072-.096 1.392-.288.32-.192.48-.453.48-.784a.73.73 0 00-.256-.576c-.16-.15-.416-.283-.768-.4-.352-.117-.875-.25-1.568-.4-1.29-.256-2.25-.645-2.88-1.168C1.114 6.717.8 5.976.8 5.016c0-.853.31-1.579.928-2.176.619-.608 1.461-.981 2.528-1.12V.6a.39.39 0 01.112-.288A.426.426 0 014.656.2h1.328a.39.39 0 01.288.112.39.39 0 01.112.288v1.152c.704.117 1.307.341 1.808.672.512.32.901.688 1.168 1.104.267.416.41.827.432 1.232a.363.363 0 01-.096.24.326.326 0 01-.24.096H7.344a.712.712 0 01-.32-.064.642.642 0 01-.208-.208c-.064-.245-.24-.453-.528-.624-.277-.17-.624-.256-1.04-.256-.48 0-.848.085-1.104.256-.256.17-.384.421-.384.752 0 .224.07.41.208.56.15.15.384.288.704.416.33.117.8.24 1.408.368.992.181 1.781.41 2.368.688.587.267 1.019.613 1.296 1.04.277.427.416.97.416 1.632 0 .939-.341 1.707-1.024 2.304-.683.597-1.6.97-2.752 1.12v1.12a.39.39 0 01-.112.288.39.39 0 01-.288.112H4.656zM93.804 13a.37.37 0 01-.272-.112.37.37 0 01-.112-.272V2.2c0-.117.032-.213.096-.288a.39.39 0 01.288-.112h4.288c1.28 0 2.288.304 3.024.912.736.597 1.104 1.477 1.104 2.64s-.368 2.043-1.104 2.64c-.725.587-1.734.88-3.024.88h-2.384v3.744a.37.37 0 01-.112.272.339.339 0 01-.272.112h-1.52zm4.208-5.904c.618 0 1.093-.144 1.424-.432.33-.299.496-.736.496-1.312 0-.555-.16-.987-.48-1.296-.32-.32-.8-.48-1.44-.48h-2.336v3.52h2.336zM177.413 13a.372.372 0 01-.272-.112.373.373 0 01-.112-.272V2.2c0-.117.032-.213.096-.288a.39.39 0 01.288-.112h7.04c.118 0 .214.037.288.112.075.075.112.17.112.288v1.056a.389.389 0 01-.112.288.425.425 0 01-.288.096h-5.264v2.832h4.912c.118 0 .214.037.288.112a.338.338 0 01.112.272v.992a.389.389 0 01-.112.288.425.425 0 01-.288.096h-4.912v2.928h5.392c.118 0 .214.037.288.112.075.075.112.17.112.288v1.056a.389.389 0 01-.112.288.425.425 0 01-.288.096h-7.168z" fill="#285193"/><path d="M19.025 13a.404.404 0 01-.272-.096.404.404 0 01-.096-.272v-8.96L16.001 5.72a.363.363 0 01-.24.096c-.096 0-.186-.053-.272-.16l-.416-.528a.383.383 0 01-.08-.224c0-.128.054-.23.16-.304l3.488-2.688a.758.758 0 01.416-.112h.816a.32.32 0 01.256.112.32.32 0 01.112.256v10.464a.37.37 0 01-.112.272.346.346 0 01-.256.096h-.848zm7.5.16c-1.376 0-2.384-.4-3.024-1.2-.64-.8-.981-1.85-1.024-3.152-.01-.288-.016-.752-.016-1.392 0-.661.006-1.141.016-1.44.032-1.28.373-2.32 1.024-3.12.65-.81 1.659-1.216 3.024-1.216 1.376 0 2.39.405 3.04 1.216.65.8.992 1.84 1.024 3.12a42.1 42.1 0 01.032 1.44c0 .352-.01.816-.032 1.392-.042 1.301-.384 2.352-1.024 3.152-.64.8-1.653 1.2-3.04 1.2zm0-1.376c.8 0 1.403-.267 1.808-.8.416-.533.635-1.285.656-2.256.021-.619.032-1.067.032-1.344 0-.299-.01-.736-.032-1.312-.021-.96-.235-1.712-.64-2.256C27.944 3.272 27.336 3 26.525 3c-.8 0-1.408.272-1.824.816-.405.544-.619 1.296-.64 2.256l-.016 1.312.016 1.344c.021.97.235 1.723.64 2.256.416.533 1.024.8 1.824.8zm9.5 1.216a.404.404 0 01-.272-.096.404.404 0 01-.096-.272v-8.96L33.001 5.72a.363.363 0 01-.24.096c-.096 0-.186-.053-.272-.16l-.416-.528a.383.383 0 01-.08-.224c0-.128.054-.23.16-.304l3.488-2.688a.758.758 0 01.416-.112h.816a.32.32 0 01.256.112.32.32 0 01.112.256v10.464a.37.37 0 01-.112.272.346.346 0 01-.256.096h-.848zm7.196.16c-.842 0-1.573-.133-2.192-.4-.608-.277-1.072-.635-1.392-1.072-.31-.437-.474-.896-.496-1.376 0-.096.032-.17.096-.224a.326.326 0 01.24-.096h.784c.224 0 .373.117.448.352.139.533.438.912.896 1.136.459.213.998.32 1.616.32.758 0 1.36-.176 1.808-.528.448-.363.672-.88.672-1.552 0-1.29-.784-1.936-2.352-1.936h-1.52a.404.404 0 01-.272-.096.404.404 0 01-.096-.272v-.432c0-.15.059-.293.176-.432l3.104-3.392h-4.72a.404.404 0 01-.272-.096.404.404 0 01-.096-.272v-.608c0-.107.032-.197.096-.272a.37.37 0 01.272-.112h6.384c.117 0 .208.037.272.112a.339.339 0 01.112.272v.576c0 .128-.059.25-.176.368l-3.088 3.44.256.016c1.088.032 1.947.315 2.576.848.63.533.944 1.312.944 2.336 0 .693-.176 1.296-.528 1.808-.352.512-.837.907-1.456 1.184-.618.267-1.317.4-2.096.4zm7.226-.16a.326.326 0 01-.24-.096.43.43 0 01-.08-.256l.031-.144 3.984-9.312h-5.248a.404.404 0 01-.271-.096.404.404 0 01-.096-.272v-.64c0-.117.032-.208.096-.272a.37.37 0 01.272-.112h6.56c.117 0 .208.037.272.112a.339.339 0 01.112.272v.592c0 .192-.043.4-.128.624l-3.936 9.2a.97.97 0 01-.192.288.339.339 0 01-.273.112h-.864zm6.212 0a.404.404 0 01-.272-.096.404.404 0 01-.096-.272V11.48c0-.107.032-.192.096-.256a.37.37 0 01.272-.112h1.152a.37.37 0 01.272.112.32.32 0 01.112.256v1.152a.37.37 0 01-.112.272.404.404 0 01-.272.096h-1.152zm3.743 0a.404.404 0 01-.272-.096.404.404 0 01-.096-.272v-.512c0-.245.133-.48.4-.704l3.392-3.392c.821-.683 1.387-1.237 1.696-1.664.31-.437.464-.896.464-1.376 0-.619-.176-1.104-.528-1.456-.341-.352-.843-.528-1.504-.528-.619 0-1.115.187-1.488.56-.373.363-.603.848-.688 1.456a.43.43 0 01-.16.288.43.43 0 01-.256.08h-.832a.362.362 0 01-.24-.08.307.307 0 01-.096-.224 3.654 3.654 0 01.464-1.648c.288-.533.71-.965 1.264-1.296.565-.341 1.243-.512 2.032-.512 1.205 0 2.112.315 2.72.944.619.619.928 1.408.928 2.368 0 .672-.17 1.28-.512 1.824-.33.533-.848 1.11-1.552 1.728l-3.072 3.12h4.992c.117 0 .208.037.272.112a.32.32 0 01.112.256v.656a.37.37 0 01-.112.272.404.404 0 01-.272.096h-7.056zm50.655 0a.402.402 0 01-.272-.096.404.404 0 01-.096-.272v-8.96l-2.656 2.048a.364.364 0 01-.24.096c-.096 0-.187-.053-.272-.16l-.416-.528a.38.38 0 01-.08-.224c0-.128.053-.23.16-.304l3.488-2.688a.757.757 0 01.416-.112h.816c.106 0 .192.037.256.112.074.064.112.15.112.256v10.464a.373.373 0 01-.112.272.347.347 0 01-.256.096h-.848zm7.195.16c-.842 0-1.573-.133-2.192-.4-.608-.277-1.072-.635-1.392-1.072-.309-.437-.474-.896-.496-1.376 0-.096.032-.17.096-.224a.326.326 0 01.24-.096h.784c.224 0 .374.117.448.352.139.533.438.912.896 1.136.459.213.998.32 1.616.32.758 0 1.36-.176 1.808-.528.448-.363.672-.88.672-1.552 0-1.29-.784-1.936-2.352-1.936h-1.52a.406.406 0 01-.272-.096.404.404 0 01-.096-.272v-.432c0-.15.059-.293.176-.432l3.104-3.392h-4.72a.406.406 0 01-.272-.096.404.404 0 01-.096-.272v-.608c0-.107.032-.197.096-.272a.372.372 0 01.272-.112h6.384c.118 0 .208.037.272.112a.338.338 0 01.112.272v.576c0 .128-.058.25-.176.368l-3.088 3.44.256.016c1.088.032 1.947.315 2.576.848.63.533.944 1.312.944 2.336 0 .693-.176 1.296-.528 1.808-.352.512-.837.907-1.456 1.184-.618.267-1.317.4-2.096.4zm9.93 0c-.832 0-1.563-.133-2.192-.4-.63-.277-1.12-.672-1.472-1.184-.352-.512-.528-1.11-.528-1.792 0-.63.154-1.179.464-1.648.309-.48.73-.848 1.264-1.104a2.674 2.674 0 01-.992-.96c-.224-.405-.336-.875-.336-1.408 0-.939.341-1.675 1.024-2.208.693-.544 1.616-.816 2.768-.816 1.141 0 2.053.272 2.736.816.693.533 1.04 1.264 1.04 2.192 0 .533-.118 1.003-.352 1.408-.224.395-.544.72-.96.976.533.256.954.624 1.264 1.104.309.47.464 1.019.464 1.648 0 .683-.176 1.28-.528 1.792-.352.512-.848.907-1.488 1.184-.63.267-1.355.4-2.176.4zm0-6.704c.64-.01 1.178-.176 1.616-.496.437-.32.656-.741.656-1.264 0-.533-.219-.96-.656-1.28-.427-.33-.966-.496-1.616-.496-.662 0-1.211.16-1.648.48-.427.32-.64.752-.64 1.296 0 .533.213.96.64 1.28.437.32.986.48 1.648.48zm0 5.424c.746 0 1.37-.192 1.872-.576.501-.384.752-.89.752-1.52s-.251-1.13-.752-1.504c-.502-.373-1.126-.56-1.872-.56-.758 0-1.387.187-1.888.56-.502.373-.752.875-.752 1.504 0 .63.25 1.136.752 1.52.501.384 1.13.576 1.888.576zm6.367 1.12a.406.406 0 01-.272-.096.404.404 0 01-.096-.272V11.48c0-.107.032-.192.096-.256a.372.372 0 01.272-.112h1.152c.107 0 .198.037.272.112a.32.32 0 01.112.256v1.152a.369.369 0 01-.112.272.402.402 0 01-.272.096h-1.152zm3.744 0a.402.402 0 01-.272-.096.404.404 0 01-.096-.272v-.512c0-.245.133-.48.4-.704l3.392-3.392c.821-.683 1.386-1.237 1.696-1.664.309-.437.464-.896.464-1.376 0-.619-.176-1.104-.528-1.456-.342-.352-.843-.528-1.504-.528-.619 0-1.115.187-1.488.56-.374.363-.603.848-.688 1.456a.435.435 0 01-.16.288.43.43 0 01-.256.08h-.832a.362.362 0 01-.24-.08.307.307 0 01-.096-.224 3.65 3.65 0 01.464-1.648 3.346 3.346 0 011.264-1.296c.565-.341 1.242-.512 2.032-.512 1.205 0 2.112.315 2.72.944.618.619.928 1.408.928 2.368 0 .672-.171 1.28-.512 1.824-.331.533-.848 1.11-1.552 1.728l-3.072 3.12h4.992a.34.34 0 01.272.112c.074.064.112.15.112.256v.656a.373.373 0 01-.112.272.406.406 0 01-.272.096h-7.056zm13.166.16c-.853 0-1.594-.17-2.224-.512a3.664 3.664 0 01-1.44-1.408 3.851 3.851 0 01-.496-1.92c0-.565.112-1.099.336-1.6.235-.512.496-.965.784-1.36l3.04-4.24c.011-.01.043-.048.096-.112a.397.397 0 01.176-.144.508.508 0 01.256-.064h.848a.26.26 0 01.224.112.326.326 0 01.096.24.365.365 0 01-.064.208l-2.336 3.264c.235-.075.539-.112.912-.112.768.01 1.446.187 2.032.528a3.55 3.55 0 011.376 1.376c.331.576.496 1.205.496 1.888 0 .683-.165 1.323-.496 1.92-.32.587-.794 1.056-1.424 1.408-.618.352-1.349.528-2.192.528zm-.016-1.36c.459 0 .88-.096 1.264-.288a2.16 2.16 0 00.928-.848c.235-.384.352-.837.352-1.36 0-.512-.117-.955-.352-1.328a2.16 2.16 0 00-.928-.848 2.785 2.785 0 00-1.264-.288c-.448 0-.869.096-1.264.288a2.291 2.291 0 00-.928.848c-.234.373-.352.816-.352 1.328 0 .523.118.976.352 1.36.235.373.544.656.928.848.384.192.806.288 1.264.288zm42.629 1.2a.406.406 0 01-.272-.096.404.404 0 01-.096-.272v-8.96l-2.656 2.048a.36.36 0 01-.24.096c-.096 0-.186-.053-.272-.16l-.416-.528a.386.386 0 01-.08-.224c0-.128.054-.23.16-.304l3.488-2.688a.76.76 0 01.416-.112h.816a.32.32 0 01.256.112.32.32 0 01.112.256v10.464a.369.369 0 01-.112.272.345.345 0 01-.256.096h-.848zm7.5.16c-1.376 0-2.384-.4-3.024-1.2-.64-.8-.981-1.85-1.024-3.152a41.396 41.396 0 01-.016-1.392c0-.661.005-1.141.016-1.44.032-1.28.373-2.32 1.024-3.12.651-.81 1.659-1.216 3.024-1.216 1.376 0 2.389.405 3.04 1.216.651.8.992 1.84 1.024 3.12.021.597.032 1.077.032 1.44 0 .352-.011.816-.032 1.392-.043 1.301-.384 2.352-1.024 3.152-.64.8-1.653 1.2-3.04 1.2zm0-1.376c.8 0 1.403-.267 1.808-.8.416-.533.635-1.285.656-2.256.021-.619.032-1.067.032-1.344 0-.299-.011-.736-.032-1.312-.021-.96-.235-1.712-.64-2.256-.405-.544-1.013-.816-1.824-.816-.8 0-1.408.272-1.824.816-.405.544-.619 1.296-.64 2.256l-.016 1.312.016 1.344c.021.97.235 1.723.64 2.256.416.533 1.024.8 1.824.8zM209.744 13a.326.326 0 01-.24-.096.432.432 0 01-.08-.256c0-.075.022-.144.064-.208l2.448-3.408a3.569 3.569 0 01-.864.096c-.757-.01-1.429-.187-2.016-.528a3.537 3.537 0 01-1.328-1.36 3.713 3.713 0 01-.464-1.808c0-.64.15-1.248.448-1.824a3.601 3.601 0 011.376-1.424c.608-.363 1.344-.544 2.208-.544.864 0 1.6.176 2.208.528.619.352 1.083.816 1.392 1.392.31.576.464 1.19.464 1.84 0 .576-.101 1.088-.304 1.536a9.726 9.726 0 01-.848 1.44l-3.088 4.304a1.592 1.592 0 01-.224.24c-.064.053-.16.08-.288.08h-.864zm1.552-5.168c.448 0 .859-.096 1.232-.288.384-.203.688-.485.912-.848.224-.373.336-.8.336-1.28s-.112-.901-.336-1.264a2.184 2.184 0 00-.912-.848A2.54 2.54 0 00211.296 3c-.448 0-.858.101-1.232.304a2.21 2.21 0 00-.896.848c-.213.363-.32.784-.32 1.264s.107.907.32 1.28c.224.363.523.645.896.848.374.192.784.288 1.232.288zm9.933 5.328c-.832 0-1.563-.133-2.192-.4-.63-.277-1.12-.672-1.472-1.184-.352-.512-.528-1.11-.528-1.792 0-.63.154-1.179.464-1.648.309-.48.73-.848 1.264-1.104a2.674 2.674 0 01-.992-.96c-.224-.405-.336-.875-.336-1.408 0-.939.341-1.675 1.024-2.208.693-.544 1.616-.816 2.768-.816 1.141 0 2.053.272 2.736.816.693.533 1.04 1.264 1.04 2.192 0 .533-.118 1.003-.352 1.408-.224.395-.544.72-.96.976.533.256.954.624 1.264 1.104.309.47.464 1.019.464 1.648 0 .683-.176 1.28-.528 1.792-.352.512-.848.907-1.488 1.184-.63.267-1.355.4-2.176.4zm0-6.704c.64-.01 1.178-.176 1.616-.496.437-.32.656-.741.656-1.264 0-.533-.219-.96-.656-1.28-.427-.33-.966-.496-1.616-.496-.662 0-1.211.16-1.648.48-.427.32-.64.752-.64 1.296 0 .533.213.96.64 1.28.437.32.986.48 1.648.48zm0 5.424c.746 0 1.37-.192 1.872-.576.501-.384.752-.89.752-1.52s-.251-1.13-.752-1.504c-.502-.373-1.126-.56-1.872-.56-.758 0-1.387.187-1.888.56-.502.373-.752.875-.752 1.504 0 .63.25 1.136.752 1.52.501.384 1.13.576 1.888.576zm10.172 1.28c-.832 0-1.563-.133-2.192-.4-.63-.277-1.12-.672-1.472-1.184-.352-.512-.528-1.11-.528-1.792 0-.63.154-1.179.464-1.648.309-.48.73-.848 1.264-1.104a2.674 2.674 0 01-.992-.96c-.224-.405-.336-.875-.336-1.408 0-.939.341-1.675 1.024-2.208.693-.544 1.616-.816 2.768-.816 1.141 0 2.053.272 2.736.816.693.533 1.04 1.264 1.04 2.192 0 .533-.118 1.003-.352 1.408-.224.395-.544.72-.96.976.533.256.954.624 1.263 1.104.31.47.465 1.019.465 1.648 0 .683-.176 1.28-.528 1.792-.352.512-.848.907-1.488 1.184-.63.267-1.355.4-2.176.4zm0-6.704c.64-.01 1.178-.176 1.616-.496.437-.32.656-.741.656-1.264 0-.533-.219-.96-.656-1.28-.427-.33-.966-.496-1.616-.496-.662 0-1.211.16-1.648.48-.427.32-.64.752-.64 1.296 0 .533.213.96.64 1.28.437.32.986.48 1.648.48zm0 5.424c.746 0 1.37-.192 1.872-.576.501-.384.752-.89.752-1.52s-.251-1.13-.752-1.504c-.502-.373-1.126-.56-1.872-.56-.758 0-1.387.187-1.888.56-.502.373-.752.875-.752 1.504 0 .63.25 1.136.752 1.52.501.384 1.13.576 1.888.576zm6.367 1.12a.404.404 0 01-.272-.096.404.404 0 01-.096-.272V11.48c0-.107.032-.192.096-.256a.37.37 0 01.272-.112h1.152a.37.37 0 01.272.112.32.32 0 01.112.256v1.152a.369.369 0 01-.112.272.404.404 0 01-.272.096h-1.152zm4.491 0a.326.326 0 01-.24-.096.432.432 0 01-.08-.256l.032-.144 3.984-9.312h-5.248a.404.404 0 01-.272-.096.404.404 0 01-.096-.272v-.64c0-.117.032-.208.096-.272a.37.37 0 01.272-.112h6.56a.34.34 0 01.272.112.338.338 0 01.112.272v.592c0 .192-.043.4-.128.624l-3.936 9.2a.958.958 0 01-.192.288.34.34 0 01-.272.112h-.864zm6.971 0a.404.404 0 01-.272-.096.404.404 0 01-.096-.272v-.512c0-.245.133-.48.4-.704l3.392-3.392c.821-.683 1.387-1.237 1.696-1.664.309-.437.464-.896.464-1.376 0-.619-.176-1.104-.528-1.456-.341-.352-.843-.528-1.504-.528-.619 0-1.115.187-1.488.56-.373.363-.603.848-.688 1.456a.43.43 0 01-.16.288.43.43 0 01-.256.08h-.832a.362.362 0 01-.24-.08.307.307 0 01-.096-.224 3.65 3.65 0 01.464-1.648 3.346 3.346 0 011.264-1.296c.565-.341 1.243-.512 2.032-.512 1.205 0 2.112.315 2.72.944.619.619.928 1.408.928 2.368 0 .672-.171 1.28-.512 1.824-.331.533-.848 1.11-1.552 1.728l-3.072 3.12h4.992a.34.34 0 01.272.112.32.32 0 01.112.256v.656a.369.369 0 01-.112.272.404.404 0 01-.272.096h-7.056z" fill="#7A7A7A"/></svg>