<svg width="94" height="14" fill="none" xmlns="http://www.w3.org/2000/svg"><path d="M.632 12a.37.37 0 01-.272-.112.37.37 0 01-.112-.272V1.2c0-.117.032-.213.096-.288A.39.39 0 01.632.8h8.384a.39.39 0 01.288.112.39.39 0 01.112.288v10.416a.39.39 0 01-.112.288.427.427 0 01-.288.096h-1.44a.37.37 0 01-.272-.112.37.37 0 01-.112-.272V2.8h-4.72v8.816a.37.37 0 01-.112.272.339.339 0 01-.272.112H.632zm14.76.16c-1.248 0-2.213-.32-2.896-.96-.682-.65-1.05-1.536-1.104-2.656l-.016-.704.016-.704c.054-1.11.427-1.99 1.12-2.64.694-.65 1.654-.976 2.88-.976 1.227 0 2.187.325 2.88.976.694.65 1.067 1.53 1.12 2.64.01.128.016.363.016.704 0 .341-.005.576-.016.704-.053 1.12-.421 2.005-1.104 2.656-.682.64-1.648.96-2.896.96zm0-1.584c.566 0 1.003-.176 1.312-.528.31-.363.48-.89.512-1.584.01-.107.016-.315.016-.624 0-.31-.005-.517-.016-.624-.032-.693-.202-1.216-.512-1.568-.31-.363-.746-.544-1.312-.544-.565 0-1.002.181-1.312.544-.31.352-.48.875-.512 1.568l-.016.624.016.624c.032.693.203 1.221.512 1.584.31.352.747.528 1.312.528zm5.469 3.184a.37.37 0 01-.272-.112.339.339 0 01-.112-.272v-2.688a.37.37 0 01.112-.272.37.37 0 01.272-.112h.128c.416 0 .72-.33.912-.992.192-.661.288-1.69.288-3.088v-2.16c0-.117.037-.208.112-.272a.37.37 0 01.272-.112h5.696c.117 0 .208.037.272.112a.339.339 0 01.112.272v6.224h.72c.117 0 .208.037.272.112a.339.339 0 01.112.272v2.704a.339.339 0 01-.112.272.339.339 0 01-.272.112h-1.312a.39.39 0 01-.288-.112.37.37 0 01-.112-.272V12h-5.088v1.376a.339.339 0 01-.112.272.339.339 0 01-.272.112h-1.328zm5.712-3.472V5.376h-2.368v1.072c0 1.835-.25 3.12-.752 3.856l3.12-.016zM31.612 12a.37.37 0 01-.272-.112.37.37 0 01-.112-.272V4.064a.37.37 0 01.112-.272.37.37 0 01.272-.112h6.848c.117 0 .208.037.272.112a.339.339 0 01.112.272v7.552a.37.37 0 01-.112.272.339.339 0 01-.272.112h-1.328a.37.37 0 01-.272-.112.37.37 0 01-.112-.272v-6.24h-3.424v6.24a.37.37 0 01-.112.272.339.339 0 01-.272.112h-1.328zm16.981-8.32c.096 0 .181.037.256.112a.303.303 0 01.112.24v7.584a.37.37 0 01-.112.272.37.37 0 01-.272.112H47.25a.37.37 0 01-.272-.112.37.37 0 01-.112-.272V6.48l-3.84 5.264a.466.466 0 01-.432.256h-1.216a.382.382 0 01-.256-.096.37.37 0 01-.112-.272V4.064a.37.37 0 01.112-.272.37.37 0 01.272-.112h1.328c.118 0 .208.037.272.112a.339.339 0 01.112.272v5.152l3.84-5.28c.117-.17.261-.256.432-.256h1.216zm5.985 8.48c-1.174 0-2.112-.325-2.816-.976-.694-.65-1.062-1.552-1.104-2.704l-.016-.64.016-.64c.042-1.152.41-2.053 1.104-2.704.704-.65 1.642-.976 2.816-.976.832 0 1.536.15 2.112.448.587.299 1.019.667 1.296 1.104.288.427.443.832.464 1.216a.305.305 0 01-.112.272.37.37 0 01-.272.112h-1.408a.455.455 0 01-.256-.064.884.884 0 01-.16-.256c-.16-.416-.373-.715-.64-.896-.256-.181-.587-.272-.992-.272-.544 0-.97.176-1.28.528-.31.341-.475.864-.496 1.568l-.016.592.016.528c.042 1.397.634 2.096 1.776 2.096.416 0 .752-.09 1.008-.272.256-.181.464-.48.624-.896a.66.66 0 01.16-.24.387.387 0 01.256-.08h1.408a.37.37 0 01.272.112.305.305 0 01.112.272c-.022.373-.17.773-.448 1.2-.278.427-.704.795-1.28 1.104-.576.31-1.29.464-2.144.464zm7.956 0a3.523 3.523 0 01-1.503-.32 2.86 2.86 0 01-1.072-.896 2.132 2.132 0 01-.385-1.232c0-.725.294-1.312.88-1.76.587-.448 1.392-.752 2.416-.912l2.193-.32v-.336c0-.47-.118-.821-.353-1.056-.234-.235-.613-.352-1.135-.352-.353 0-.64.07-.864.208a2.66 2.66 0 00-.512.384 11.8 11.8 0 01-.256.272c-.043.128-.123.192-.24.192H60.47a.382.382 0 01-.255-.096.346.346 0 01-.097-.256c.011-.267.14-.57.384-.912.256-.341.646-.635 1.168-.88.523-.245 1.163-.368 1.92-.368 1.26 0 2.176.283 2.752.848.576.565.865 1.307.865 2.224v5.024a.37.37 0 01-.112.272.339.339 0 01-.272.112h-1.296a.37.37 0 01-.273-.112.37.37 0 01-.112-.272v-.624c-.234.341-.57.624-1.007.848-.427.213-.96.32-1.6.32zm.544-1.52c.587 0 1.067-.192 1.44-.576.374-.384.56-.944.56-1.68v-.336l-1.6.256c-.618.096-1.087.25-1.407.464-.31.213-.465.475-.465.784a.91.91 0 00.432.8c.289.192.635.288 1.04.288zM71.803 12a.37.37 0 01-.272-.112.37.37 0 01-.112-.272v-6.24h-2.608a.37.37 0 01-.272-.112.39.39 0 01-.112-.288v-.912c0-.117.037-.208.112-.272a.37.37 0 01.272-.112h7.264a.39.39 0 01.288.112.37.37 0 01.112.272v.912a.426.426 0 01-.112.288.39.39 0 01-.288.112h-2.592v6.24a.37.37 0 01-.112.272.339.339 0 01-.272.112h-1.296zm9.54.16c-1.173 0-2.112-.325-2.816-.976-.693-.65-1.06-1.552-1.103-2.704l-.017-.64.017-.64c.042-1.152.41-2.053 1.103-2.704.704-.65 1.643-.976 2.817-.976.832 0 1.535.15 2.112.448.586.299 1.018.667 1.295 1.104.288.427.443.832.465 1.216a.305.305 0 01-.112.272.37.37 0 01-.272.112h-1.408a.455.455 0 01-.257-.064.886.886 0 01-.16-.256c-.16-.416-.373-.715-.64-.896-.255-.181-.586-.272-.992-.272-.543 0-.97.176-1.28.528-.309.341-.474.864-.495 1.568l-.016.592.016.528c.042 1.397.634 2.096 1.776 2.096.415 0 .751-.09 1.007-.272.257-.181.465-.48.624-.896a.66.66 0 01.16-.24.387.387 0 01.257-.08h1.407a.37.37 0 01.272.112.305.305 0 01.113.272c-.022.373-.171.773-.448 1.2-.278.427-.704.795-1.28 1.104-.576.31-1.291.464-2.144.464zm12.181-8.48c.117 0 .208.037.272.112a.339.339 0 01.112.272v7.552a.37.37 0 01-.112.272.339.339 0 01-.272.112h-1.36a.37.37 0 01-.272-.112.37.37 0 01-.112-.272V9.168h-1.424l-1.584 2.592c-.096.16-.23.24-.4.24h-1.328a.326.326 0 01-.24-.096.307.307 0 01-.096-.224c0-.096.032-.181.096-.256l1.68-2.64c-.501-.213-.88-.523-1.136-.928-.256-.416-.384-.907-.384-1.472 0-.896.278-1.568.832-2.016.566-.459 1.387-.688 2.464-.688h3.264zM91.812 5.2h-1.504c-.501 0-.87.09-1.104.272-.224.181-.336.485-.336.912 0 .395.112.704.336.928.224.224.56.336 1.008.336h1.6V5.2z" fill="#fff"/></svg>