<svg width="19" height="13" fill="none" xmlns="http://www.w3.org/2000/svg"><path d="M2.133 7.773V12H.156V.625h4.352c1.27 0 2.278.33 3.023.992.75.662 1.125 1.537 1.125 2.625 0 1.115-.367 1.982-1.101 2.602-.73.62-1.753.93-3.07.93H2.132zm0-1.585h2.375c.703 0 1.24-.165 1.61-.493.369-.333.554-.812.554-1.437 0-.615-.188-1.104-.563-1.469-.375-.37-.89-.56-1.546-.57h-2.43v3.969zm12.351.382L16.766.625h2.195L15 10.063l-.36.71c-.52.928-1.364 1.391-2.53 1.391l-.813-.047.015-1.562c.126.02.347.03.665.03.562 0 .958-.239 1.187-.718l.406-.96L9.68.624h2.156l2.648 5.945z" fill="#535353"/></svg>